<?xml version="1.0" encoding="UTF-8" standalone="no"?>
<!DOCTYPE svg PUBLIC "-//W3C//DTD SVG 1.1//EN" "http://www.w3.org/Graphics/SVG/1.1/DTD/svg11.dtd">
<svg version="1.1" xmlns="http://www.w3.org/2000/svg" xmlns:xlink="http://www.w3.org/1999/xlink" preserveAspectRatio="xMidYMid meet" viewBox="0 0 147 147" width="147" height="147"><defs><path d="M144.17 14.74C144.17 40.48 144.17 108.05 144.17 133.79C144.17 139.13 139.85 143.45 134.51 143.45C108.38 143.45 39.62 143.45 13.49 143.45C8.15 143.45 3.83 139.13 3.83 133.79C3.83 108.05 3.83 40.48 3.83 14.74C3.83 9.41 8.15 5.08 13.49 5.08C39.62 5.08 108.38 5.08 134.51 5.08C139.85 5.08 144.17 9.41 144.17 14.74Z" id="i3ub5IRFOb"></path><path d="M42.33 23.67C42.39 23.61 42.7 23.31 43.26 22.77C42.55 22.77 38.97 22.77 32.54 22.77L21.85 22.77C21.85 28.75 21.85 32.08 21.85 32.74C21.88 39.39 21.93 42.72 21.98 42.72C22.09 42.72 39.06 26.81 42.33 23.67Z" id="a5T4RPNgHf"></path><path d="M42.33 23.67C42.39 23.61 42.7 23.31 43.26 22.77C42.55 22.77 38.97 22.77 32.54 22.77L21.85 22.77C21.85 28.75 21.85 32.08 21.85 32.74C21.88 39.39 21.93 42.72 21.98 42.72C22.09 42.72 39.06 26.81 42.33 23.67Z" id="c1Dw0YYieH"></path><path d="M22.7 51.28C22.64 51.38 22.36 51.87 21.85 52.75C21.85 53.15 21.87 55.14 21.9 58.73C21.95 62.32 21.97 64.32 21.98 64.72C29.32 57.52 33.4 53.52 34.22 52.72C40.95 46.12 50.58 36.68 55.63 31.76C56.24 31.16 59.3 28.16 64.81 22.77C64.32 22.77 61.88 22.78 57.49 22.8L50.18 22.8C48.58 24.74 47.7 25.82 47.52 26.04C40.3 33.84 35.26 38.98 32.38 41.44C27.86 45.3 23.82 49.42 22.7 51.28Z" id="aeVZmU9Y7"></path><path d="M22.7 51.28C22.64 51.38 22.36 51.87 21.85 52.75C21.85 53.15 21.87 55.14 21.9 58.73C21.95 62.32 21.97 64.32 21.98 64.72C29.32 57.52 33.4 53.52 34.22 52.72C40.95 46.12 50.58 36.68 55.63 31.76C56.24 31.16 59.3 28.16 64.81 22.77C64.32 22.77 61.88 22.78 57.49 22.8L50.18 22.8C48.58 24.74 47.7 25.82 47.52 26.04C40.3 33.84 35.26 38.98 32.38 41.44C27.86 45.3 23.82 49.42 22.7 51.28Z" id="e1rciNh2v8"></path><path d="M34.01 72.11C30.39 75.46 27.43 78.28 27.43 78.39C27.43 78.5 35.89 86.93 46.24 97.14C56.62 107.33 67.84 118.53 71.19 122.01C71.6 122.44 73.64 124.55 77.31 128.34C77.97 128.34 81.3 128.34 87.28 128.34C93.27 128.36 96.59 128.37 97.26 128.37C86.17 117.41 80.01 111.31 78.77 110.1C68.61 100.04 57.2 88.76 53.45 85.04C52.99 84.59 50.72 82.32 46.61 78.23C61.76 63.47 70.17 55.27 71.86 53.62C85.74 40.09 98.56 27.61 100.35 25.88C100.56 25.67 101.64 24.64 103.59 22.77C102.93 22.77 99.61 22.77 93.64 22.77L83.69 22.77C82.48 24 81.8 24.68 81.67 24.82C79.38 27.28 77.66 29.17 76.49 30.48C70.53 37.24 49.19 58.15 34.01 72.11Z" id="c2kmOQHXap"></path><path d="M34.01 72.11C30.39 75.46 27.43 78.28 27.43 78.39C27.43 78.5 35.89 86.93 46.24 97.14C56.62 107.33 67.84 118.53 71.19 122.01C71.6 122.44 73.64 124.55 77.31 128.34C77.97 128.34 81.3 128.34 87.28 128.34C93.27 128.36 96.59 128.37 97.26 128.37C86.17 117.41 80.01 111.31 78.77 110.1C68.61 100.04 57.2 88.76 53.45 85.04C52.99 84.59 50.72 82.32 46.61 78.23C61.76 63.47 70.17 55.27 71.86 53.62C85.74 40.09 98.56 27.61 100.35 25.88C100.56 25.67 101.64 24.64 103.59 22.77C102.93 22.77 99.61 22.77 93.64 22.77L83.69 22.77C82.48 24 81.8 24.68 81.67 24.82C79.38 27.28 77.66 29.17 76.49 30.48C70.53 37.24 49.19 58.15 34.01 72.11Z" id="gv8UWY1RD"></path><path d="M100.93 34.37C87.55 47.37 56.56 77.88 56.48 78.1C56.3 78.6 62.49 84.99 83.67 106.08C85.16 107.57 92.62 115 106.04 128.37C106.72 128.36 110.1 128.34 116.2 128.29C122.3 128.26 125.68 128.24 126.36 128.24C115.95 118.04 110.17 112.37 109.02 111.24C99.47 101.88 88.06 90.65 83.64 86.32C83.11 85.79 80.43 83.16 75.61 78.42C91.18 63.11 99.84 54.61 101.57 52.91C115.85 38.89 128.62 26.39 129.95 25.11C130.11 24.96 130.92 24.18 132.37 22.8C131.69 22.8 128.27 22.79 122.13 22.77L111.86 22.77C111.06 23.6 110.62 24.06 110.53 24.15C109.38 25.45 108.65 26.32 108.35 26.76C107.87 27.42 104.55 30.86 100.93 34.37Z" id="a2NzdtUfCL"></path><path d="M100.93 34.37C87.55 47.37 56.56 77.88 56.48 78.1C56.3 78.6 62.49 84.99 83.67 106.08C85.16 107.57 92.62 115 106.04 128.37C106.72 128.36 110.1 128.34 116.2 128.29C122.3 128.26 125.68 128.24 126.36 128.24C115.95 118.04 110.17 112.37 109.02 111.24C99.47 101.88 88.06 90.65 83.64 86.32C83.11 85.79 80.43 83.16 75.61 78.42C91.18 63.11 99.84 54.61 101.57 52.91C115.85 38.89 128.62 26.39 129.95 25.11C130.11 24.96 130.92 24.18 132.37 22.8C131.69 22.8 128.27 22.79 122.13 22.77L111.86 22.77C111.06 23.6 110.62 24.06 110.53 24.15C109.38 25.45 108.65 26.32 108.35 26.76C107.87 27.42 104.55 30.86 100.93 34.37Z" id="a7f67nfLBK"></path><path d="M23.15 107.25C24.56 109.27 26.42 111.08 31.42 115.39C34.56 118.08 40.02 123.45 43.05 126.83C43.14 126.93 43.6 127.45 44.43 128.37C44.86 128.37 46.99 128.37 50.84 128.37C54.7 128.37 56.85 128.37 57.28 128.37C52.65 123.63 50.08 121 49.57 120.47C45.31 116.11 37.33 108 31.85 102.44C31.19 101.76 27.86 98.39 21.88 92.33C21.88 92.77 21.88 94.95 21.88 98.87L21.85 105.41C22.66 106.56 23.1 107.17 23.15 107.25Z" id="a5oasQ76bG"></path><path d="M23.15 107.25C24.56 109.27 26.42 111.08 31.42 115.39C34.56 118.08 40.02 123.45 43.05 126.83C43.14 126.93 43.6 127.45 44.43 128.37C44.86 128.37 46.99 128.37 50.84 128.37C54.7 128.37 56.85 128.37 57.28 128.37C52.65 123.63 50.08 121 49.57 120.47C45.31 116.11 37.33 108 31.85 102.44C31.19 101.76 27.86 98.39 21.88 92.33C21.88 92.77 21.88 94.95 21.88 98.87L21.85 105.41C22.66 106.56 23.1 107.17 23.15 107.25Z" id="eOttTYVz6"></path><path d="M29.32 128.37C33.81 128.37 36.3 128.37 36.8 128.37C32.81 124.27 30.59 121.99 30.15 121.53C26.5 117.76 23.13 114.33 22.67 113.9C22.62 113.85 22.34 113.58 21.85 113.1C21.85 113.61 21.85 116.16 21.85 120.74L21.85 128.37L29.32 128.37Z" id="b6dJLkx3UF"></path><path d="M29.32 128.37C33.81 128.37 36.3 128.37 36.8 128.37C32.81 124.27 30.59 121.99 30.15 121.53C26.5 117.76 23.13 114.33 22.67 113.9C22.62 113.85 22.34 113.58 21.85 113.1C21.85 113.61 21.85 116.16 21.85 120.74L21.85 128.37L29.32 128.37Z" id="a7XQ2qp5"></path></defs><g><g><g><use xlink:href="#i3ub5IRFOb" opacity="1" fill="#2a2a2a" fill-opacity="1"></use><g><use xlink:href="#i3ub5IRFOb" opacity="1" fill-opacity="0" stroke="#000000" stroke-width="1" stroke-opacity="0"></use></g></g><g><use xlink:href="#a5T4RPNgHf" opacity="1" fill="#177eda" fill-opacity="1"></use><g><use xlink:href="#a5T4RPNgHf" opacity="1" fill-opacity="0" stroke="#000000" stroke-width="1" stroke-opacity="0"></use></g></g><g><use xlink:href="#c1Dw0YYieH" opacity="1" fill="#000000" fill-opacity="0"></use><g><use xlink:href="#c1Dw0YYieH" opacity="1" fill-opacity="0" stroke="#000000" stroke-width="1" stroke-opacity="0"></use></g></g><g><use xlink:href="#aeVZmU9Y7" opacity="1" fill="#177eda" fill-opacity="1"></use><g><use xlink:href="#aeVZmU9Y7" opacity="1" fill-opacity="0" stroke="#000000" stroke-width="1" stroke-opacity="0"></use></g></g><g><use xlink:href="#e1rciNh2v8" opacity="1" fill="#000000" fill-opacity="0"></use><g><use xlink:href="#e1rciNh2v8" opacity="1" fill-opacity="0" stroke="#000000" stroke-width="1" stroke-opacity="0"></use></g></g><g><use xlink:href="#c2kmOQHXap" opacity="1" fill="#ffffff" fill-opacity="1"></use><g><use xlink:href="#c2kmOQHXap" opacity="1" fill-opacity="0" stroke="#000000" stroke-width="1" stroke-opacity="0"></use></g></g><g><use xlink:href="#gv8UWY1RD" opacity="1" fill="#000000" fill-opacity="0"></use><g><use xlink:href="#gv8UWY1RD" opacity="1" fill-opacity="0" stroke="#000000" stroke-width="1" stroke-opacity="0"></use></g></g><g><use xlink:href="#a2NzdtUfCL" opacity="1" fill="#ffffff" fill-opacity="1"></use><g><use xlink:href="#a2NzdtUfCL" opacity="1" fill-opacity="0" stroke="#000000" stroke-width="1" stroke-opacity="0"></use></g></g><g><use xlink:href="#a7f67nfLBK" opacity="1" fill="#000000" fill-opacity="0"></use><g><use xlink:href="#a7f67nfLBK" opacity="1" fill-opacity="0" stroke="#000000" stroke-width="1" stroke-opacity="0"></use></g></g><g><use xlink:href="#a5oasQ76bG" opacity="1" fill="#177eda" fill-opacity="1"></use><g><use xlink:href="#a5oasQ76bG" opacity="1" fill-opacity="0" stroke="#000000" stroke-width="1" stroke-opacity="0"></use></g></g><g><use xlink:href="#eOttTYVz6" opacity="1" fill="#000000" fill-opacity="0"></use><g><use xlink:href="#eOttTYVz6" opacity="1" fill-opacity="0" stroke="#000000" stroke-width="1" stroke-opacity="0"></use></g></g><g><use xlink:href="#b6dJLkx3UF" opacity="1" fill="#177eda" fill-opacity="1"></use><g><use xlink:href="#b6dJLkx3UF" opacity="1" fill-opacity="0" stroke="#000000" stroke-width="1" stroke-opacity="0"></use></g></g><g><use xlink:href="#a7XQ2qp5" opacity="1" fill="#000000" fill-opacity="0"></use><g><use xlink:href="#a7XQ2qp5" opacity="1" fill-opacity="0" stroke="#000000" stroke-width="1" stroke-opacity="0"></use></g></g></g></g></svg>